Coordinates
version=1
nRows=21
nColumns=22
inDegrees=yes

Units are S.I. units (second, meters, Newtons, ...)
If the header above contains a line with 'inDegrees', this indicates whether rotational values are in degrees (yes) or radians (no).

endheader
time	pelvis_tilt	pelvis_list	pelvis_rotation	pelvis_tx	pelvis_ty	pelvis_tz	hip_flexion_r	hip_adduction_r	hip_rotation_r	knee_angle_r	ankle_angle_r	subtalar_angle_r	hip_flexion_l	hip_adduction_l	hip_rotation_l	knee_angle_l	ankle_angle_l	subtalar_angle_l	lumbar_extension	lumbar_bending	lumbar_rotation
      1.35000000	      1.62098644	     -2.51709796	     -3.98296009	      1.05792433	      0.92650945	      0.11600545	     -1.07838484	      2.92471840	     -0.14138425	    -11.21883343	      5.54883704	      0.75634365	     -3.45572185	     -3.19699466	    -12.86278308	     -8.28092716	      7.49926033	     -1.10220256	     -4.51235196	     -1.10849800	      1.64499468
      1.36000000	      1.48876377	     -2.54015954	     -4.03628187	      1.05726629	      0.92630886	      0.11646154	     -0.69443679	      2.99519640	     -0.12367589	    -11.58940881	      5.59499317	      0.68185186	     -3.08040027	     -3.31291146	    -12.84862560	     -8.67407197	      7.57818096	     -1.00431344	     -4.41240941	     -1.11230866	      1.72797293
      1.37000000	      1.35438826	     -2.56142469	     -4.08383932	      1.05655988	      0.92610134	      0.11697852	     -0.28725582	      3.07045193	     -0.12079014	    -11.99473545	      5.64528127	      0.60307883	     -2.67005499	     -3.43765549	    -12.83162606	     -9.12265503	      7.66643964	     -0.91717392	     -4.31499052	     -1.12647235	      1.83210488
      1.38000000	      1.19554605	     -2.58122523	     -4.13823146	      1.05576744	      0.92585284	      0.11758207	      0.17207700	      3.15216694	     -0.13144115	    -12.43571639	      5.69691596	      0.51807651	     -2.19382663	     -3.57410506	    -12.80523655	     -9.63917030	      7.77041527	     -0.83834661	     -4.20526649	     -1.15180617	      1.94957744
      1.39000000	      1.00888874	     -2.59891453	     -4.18459733	      1.05491013	      0.92556239	      0.11827364	      0.68781416	      3.24458929	     -0.11687366	    -12.92305348	      5.73226470	      0.42481869	     -1.65997069	     -3.71984798	    -12.73962292	    -10.19740860	      7.87310726	     -0.77454344	     -4.06872627	     -1.18978753	      2.06250109
      1.40000000	      0.83048116	     -2.61915640	     -4.22704686	      1.05398404	      0.92526587	      0.11905180	      1.20928319	      3.34554804	     -0.13502830	    -13.42838864	      5.77089148	      0.33618019	     -1.09277889	     -3.87970333	    -12.67189291	    -10.82827077	      7.99752251	     -0.73366926	     -3.95678425	     -1.23994957	      2.20785544
      1.41000000	      0.65537861	     -2.64249560	     -4.26465142	      1.05299534	      0.92495180	      0.11991488	      1.74103635	      3.45720221	     -0.16131362	    -13.95317023	      5.80679065	      0.24314798	     -0.49082707	     -4.05212341	    -12.58066676	    -11.52509109	      8.13908593	     -0.71467011	     -3.85893182	     -1.29686311	      2.36534470
      1.42000000	      0.48883395	     -2.67439980	     -4.29156387	      1.05192321	      0.92461707	      0.12086703	      2.27567012	      3.58613260	     -0.19028430	    -14.49274580	      5.84250633	      0.13689579	      0.14180074	     -4.24299695	    -12.45503252	    -12.28570591	      8.30034767	     -0.71637718	     -3.78776949	     -1.35665774	      2.53171332
      1.43000000	      0.34327957	     -2.72085356	     -4.30425209	      1.05076403	      0.92426804	      0.12189332	      2.79838902	      3.73701392	     -0.22672891	    -15.04554031	      5.88193499	      0.01119457	      0.79707202	     -4.45579319	    -12.28709752	    -13.11952785	      8.48601868	     -0.73577247	     -3.75721412	     -1.41044252	      2.70501060
      1.44000000	      0.20454673	     -2.77512800	     -4.30821326	      1.04951286	      0.92387901	      0.12300128	      3.33006742	      3.90202139	     -0.28482217	    -15.61866383	      5.91431285	     -0.15181949	      1.48715248	     -4.68226741	    -12.06979145	    -14.01719757	      8.65567816	     -0.77390787	     -3.75124559	     -1.46366001	      2.89666351
      1.45000000	      0.10926020	     -2.86541356	     -4.28050620	      1.04816871	      0.92347258	      0.12416907	      3.80669435	      4.11256827	     -0.32469099	    -16.17251711	      5.97005218	     -0.32682256	      2.18488857	     -4.94972085	    -11.76676115	    -15.00297505	      8.90879984	     -0.81956544	     -3.81830486	     -1.48490223	      3.06367980
      1.46000000	      0.04064153	     -2.96548413	     -4.22465049	      1.04672517	      0.92302712	      0.12539109	      4.26691290	      4.33667862	     -0.39512351	    -16.74023417	      6.03496897	     -0.53158313	      2.90921145	     -5.22876001	    -11.39732335	    -16.06685008	      9.15282593	     -0.87454582	     -3.93593991	     -1.50430618	      3.25086172
      1.47000000	      0.00959907	     -3.08471365	     -4.14614929	      1.04518488	      0.92254212	      0.12664121	      4.69514526	      4.58105288	     -0.48695905	    -17.31427448	      6.10780923	     -0.75795996	      3.65185875	     -5.52222028	    -10.93832632	    -17.22020660	      9.41099999	     -0.93512983	     -4.11753380	     -1.50116895	      3.43155254
      1.48000000	      0.01383879	     -3.21952587	     -4.02439185	      1.04353741	      0.92200301	      0.12791055	      5.09507574	      4.84313745	     -0.60948288	    -17.89602629	      6.19334438	     -1.00583246	      4.42422678	     -5.82652892	    -10.38676313	    -18.46625769	      9.67794797	     -0.99849860	     -4.36273929	     -1.48619427	      3.60866666
      1.49000000	      0.02731569	     -3.35074979	     -3.87934625	      1.04176464	      0.92136580	      0.12918882	      5.51359958	      5.09942983	     -0.78576398	    -18.51352208	      6.29824721	     -1.31136554	      5.26608819	     -6.12143108	     -9.77716283	    -19.82716196	      9.89762534	     -1.06969782	     -4.64086700	     -1.47310970	      3.79407569
      1.50000000	      0.09989206	     -3.50635124	     -3.68400459	      1.03987594	      0.92068864	      0.13043952	      5.87470782	      5.37822464	     -0.99571966	    -19.12895378	      6.41384715	     -1.61749107	      6.11891671	     -6.42429916	     -9.05424771	    -21.28883675	     10.14318403	     -1.12888107	     -5.01459576	     -1.43125171	      3.95256907
      1.51000000	      0.22517454	     -3.67869636	     -3.44009296	      1.03786429	      0.91995661	      0.13164540	      6.18895317	      5.67191499	     -1.23049759	    -19.74587531	      6.55756895	     -1.92468354	      6.99430568	     -6.72226164	     -8.22258789	    -22.85741903	     10.41659567	     -1.17357309	     -5.47768193	     -1.36576031	      4.06525551
      1.52000000	      0.34896165	     -3.84426523	     -3.16772134	      1.03568885	      0.91907915	      0.13281002	      6.54869603	      5.95246596	     -1.52917167	    -20.41949362	      6.73734312	     -2.30646729	      7.96687154	     -7.00093600	     -7.36105001	    -24.55812844	     10.60391638	     -1.21436212	     -5.96459014	     -1.30039067	      4.18192276
      1.53000000	      0.46083460	     -3.99402173	     -2.88837810	      1.03337103	      0.91803732	      0.13395913	      6.97019225	      6.21233722	     -1.86967078	    -21.16280642	      6.93746810	     -2.80190812	      9.03170359	     -7.25149484	     -6.50677856	    -26.36979994	     10.68678670	     -1.24931206	     -6.45536306	     -1.24827608	      4.33402804
      1.54000000	      0.63591621	     -4.16613010	     -2.56232495	      1.03095549	      0.91693747	      0.13502912	      7.33178541	      6.48761429	     -2.23890994	    -21.90513428	      7.17146893	     -3.27542095	     10.09552109	     -7.49758791	     -5.59793695	    -28.26394052	     10.75926367	     -1.26246338	     -7.03760429	     -1.16043327	      4.45120538
      1.55000000	      0.86025185	     -4.34883106	     -2.20755652	      1.02844727	      0.91575711	      0.13604341	      7.64967274	      6.76984016	     -2.60437987	    -22.64964697	      7.47984863	     -3.72127320	     11.16715293	     -7.73540526	     -4.69598826	    -30.23241348	     10.78310077	     -1.25987110	     -7.68827764	     -1.04790044	      4.53331490
